<svg xmlns="http://www.w3.org/2000/svg" viewBox="0 0 512 459.81"><path d="M315.43,216.61V110.91A16.24,16.24,0,0,0,299.2,94.67H157.13V42.34c0-14.32-17.29-21.63-27.56-11.62L4.9,152.13a16.24,16.24,0,0,0,0,23.25L129.57,296.8c10.26,10,27.56,2.7,27.56-11.63V232.84H299.2a16.23,16.23,0,0,0,16.23-16.23ZM283,200.38H140.9a16.22,16.22,0,0,0-16.23,16.23v30.1l-85.18-83,85.18-82.95v30.1a16.23,16.23,0,0,0,16.23,16.23H283Z" transform="translate(0 -26.09)"/><path d="M507.1,336.63,382.43,215.22c-10.26-10-27.56-2.71-27.56,11.63v52.33H212.8a16.23,16.23,0,0,0-16.23,16.23v105.7a16.23,16.23,0,0,0,16.23,16.23H354.87v52.33c0,14.37,17.35,21.57,27.56,11.63L507.1,359.89a16.25,16.25,0,0,0,0-23.26ZM387.34,431.21v-30.1a16.24,16.24,0,0,0-16.24-16.23H229V311.64H371.1a16.24,16.24,0,0,0,16.24-16.23v-30.1l85.17,82.95Z" transform="translate(0 -26.09)"/></svg>