<svg id="Warstwa_1" data-name="Warstwa 1" xmlns="http://www.w3.org/2000/svg" viewBox="0 0 480.03 480"><g id="Outline"><path d="M376,16a119.76,119.76,0,0,0-91.19,42.09A199.13,199.13,0,0,0,170.48,75.18L91.07,84a8,8,0,0,0-4.78,13.61L109,120.35a201.38,201.38,0,0,0-21.2,27.31l13.44,8.68A185.24,185.24,0,0,1,125.9,125.9a8,8,0,0,0,0-11.31h0L109.38,98.07l75.34-8.37L176.35,165l-10.86-10.86a8,8,0,0,0-11.32,0A144.05,144.05,0,0,0,112,258.44,120,120,0,0,0,72.88,274,184.81,184.81,0,0,1,95,166.83l-14-7.76a200.83,200.83,0,0,0-22.93,125.7,119.91,119.91,0,0,0-20.56,22.65l13.12,9.15A103.56,103.56,0,1,1,42,331.43l-14.45-6.86A120,120,0,0,0,227.18,453.92a200.36,200.36,0,0,0,129.43-25.05l58.66-6.52a8,8,0,0,0,4.78-13.61L403,391.66a199.49,199.49,0,0,0,52.87-144l-16,.66A184.51,184.51,0,0,1,386.1,386.11a8,8,0,0,0,0,11.32h0L397,408.29l-43.63,4.84h-.12l-31.59,3.51L330,341.31l16.52,16.52a8,8,0,0,0,11.31,0A144,144,0,0,0,400,253.59,120,120,0,0,0,376,16ZM306.91,431.37c.2.19.41.38.62.55l.23.17.44.32.06,0A184.85,184.85,0,0,1,238,439.11,119.18,119.18,0,0,0,253.59,400a144,144,0,0,0,54.88-9.84l-3.85,34.7A8,8,0,0,0,306.91,431.37ZM352,340.68l-22.45-22.45A8,8,0,0,0,315.93,323l-5.43,48.83A128,128,0,0,1,255.72,384c.18-2.64.28-5.3.28-8A120.15,120.15,0,0,0,136,256c-2.67,0-5.34.1-8,.27a128,128,0,0,1,32-84.94l16.8,16.79a8,8,0,0,0,13.6-4.78L201.72,81.52a8,8,0,0,0,0-1.38A182.93,182.93,0,0,1,274,72.89,119.2,119.2,0,0,0,258.4,112a145.55,145.55,0,0,0-53.22,9.2l5.64,15A129.16,129.16,0,0,1,256.27,128c-.18,2.64-.27,5.29-.27,8A120.13,120.13,0,0,0,376,256c2.68,0,5.35-.1,8-.27A127.94,127.94,0,0,1,352,340.68ZM376,240A104,104,0,1,1,480,136,104,104,0,0,1,376,240Zm30.36-38.7,6.73,14.52a88,88,0,0,1-90-150.15l9.63,12.78A72,72,0,0,0,406.36,201.3Zm55.25-85.69a88,88,0,0,1-32.68,90.71l-9.63-12.78A72,72,0,0,0,345.64,70.7l-6.73-14.52a88,88,0,0,1,122.7,59.44ZM384,80V96h16v16H368a8,8,0,0,0,0,16h16a24,24,0,0,1,0,48v16H368V176H352V160h32a8,8,0,0,0,0-16H368a24,24,0,0,1,0-48V80Zm-64,48h16v16H320Zm112,16H416V128h16ZM83.07,305.67l9.63,12.78A72,72,0,0,0,166.36,441.3l6.73,14.52a88,88,0,0,1-90-150.15ZM188.93,446.33l-9.63-12.78A72,72,0,0,0,105.64,310.7l-6.73-14.52a88,88,0,0,1,90,150.15ZM88,352h16a32,32,0,0,1,64,0H152a16,16,0,0,0-32,0h16v16H120v16h16v16H120a16,16,0,0,0,32,0h16a32,32,0,0,1-64,0H88V384h16V368H88Zm104,32H176V368h16Z" transform="translate(-16 -16)"/></g></svg>